<?xml version="1.0" encoding="UTF-8" standalone="no"?>
<svg
   id="visual"
   viewBox="0 0 1920 540"
   width="1920"
   height="540"
   version="1.1"
   sodipodi:docname="layered-waves-haikei-2.svg"
   inkscape:version="1.1 (c68e22c387, 2021-05-23)"
   xmlns:inkscape="http://www.inkscape.org/namespaces/inkscape"
   xmlns:sodipodi="http://sodipodi.sourceforge.net/DTD/sodipodi-0.dtd"
   xmlns="http://www.w3.org/2000/svg"
   xmlns:svg="http://www.w3.org/2000/svg">
  <defs
     id="defs29" />
  <sodipodi:namedview
     id="namedview27"
     pagecolor="#505050"
     bordercolor="#ffffff"
     borderopacity="1"
     inkscape:pageshadow="0"
     inkscape:pageopacity="0"
     inkscape:pagecheckerboard="1"
     showgrid="false"
     inkscape:zoom="0.55104167"
     inkscape:cx="959.09262"
     inkscape:cy="269.4896"
     inkscape:window-width="1920"
     inkscape:window-height="1057"
     inkscape:window-x="2552"
     inkscape:window-y="-8"
     inkscape:window-maximized="1"
     inkscape:current-layer="visual" />
  <path
     d="M 0,94.689959 64,94.11531 C 128,93.349113 256,92.199817 384,85.687138 512,79.366009 640,67.873046 768,51.591349 896,35.309653 1024,14.239221 1152,6.9603452 c 128,-7.47042555 256,-0.9577468 384,9.7690178 128,10.918315 256,26.242265 320,33.90424 l 64,7.661974 V 541 h -64 c -64,0 -192,0 -320,0 -128,0 -256,0 -384,0 -128,0 -256,0 -384,0 -128,0 -256,0 -384,0 -128,0 -256,0 -320,0 H 0 Z"
     fill="#3f454b"
     id="path2"
     style="stroke-width:1.38401" />
  <path
     d="m 0,33.394159 64,13.791555 c 64,13.600005 192,41.183115 320,46.929596 128,5.746482 256,-10.343666 384,-7.661975 128,2.490142 256,23.560575 384,12.45071 128,-11.301413 256,-54.591572 384,-66.084534 128,-11.492963 256,8.811271 320,19.154937 l 64,10.152117 V 541 h -64 c -64,0 -192,0 -320,0 -128,0 -256,0 -384,0 -128,0 -256,0 -384,0 -128,0 -256,0 -384,0 -128,0 -256,0 -320,0 H 0 Z"
     fill="#414e58"
     id="path4"
     style="stroke-width:1.38401;fill:#454158;fill-opacity:1" />
  <path
     d="m 0,180.88718 64,-26.24227 c 64,-26.05071 192,-78.535241 320,-79.109889 128,-0.574648 256,50.377489 384,64.169039 128,13.79156 256,-9.96057 384,-29.1155 128,-19.154941 256,-33.712693 384,-26.050718 128,7.661975 256,37.543678 320,52.676078 l 64,14.94085 V 541 h -64 c -64,0 -192,0 -320,0 -128,0 -256,0 -384,0 -128,0 -256,0 -384,0 -128,0 -256,0 -384,0 -128,0 -256,0 -320,0 H 0 Z"
     fill="#425764"
     id="path6"
     style="stroke-width:1.38401;fill:#4a4264;fill-opacity:1" />
  <path
     d="m 0,169.39421 64,1.5324 c 64,1.72394 192,4.78873 320,4.78873 128,0 256,-3.06479 384,-0.95774 128,2.29859 256,9.96056 384,14.3662 128,4.59718 256,5.74648 384,1.91549 128,-3.83098 256,-12.64226 320,-17.23944 l 64,-4.40564 V 541 h -64 c -64,0 -192,0 -320,0 -128,0 -256,0 -384,0 -128,0 -256,0 -384,0 -128,0 -256,0 -384,0 -128,0 -256,0 -320,0 H 0 Z"
     fill="#416170"
     id="path8"
     style="stroke-width:1.38401;fill:#4a4170;fill-opacity:1" />
  <path
     d="m 0,142.5773 64,8.61972 c 64,8.61973 192,25.85917 320,21.64508 128,-4.02253 256,-29.69015 384,-22.98592 128,6.70423 256,45.7803 384,64.55214 128,18.77184 256,17.62254 384,16.66479 128,-0.95774 256,-1.72394 320,-1.91549 l 64,-0.3831 V 541 h -64 c -64,0 -192,0 -320,0 -128,0 -256,0 -384,0 -128,0 -256,0 -384,0 -128,0 -256,0 -384,0 -128,0 -256,0 -320,0 H 0 Z"
     fill="#3f6b7b"
     id="path10"
     style="stroke-width:1.38401;fill:#4c3f7b;fill-opacity:1" />
  <path
     d="m 0,190.46465 64,10.15211 c 64,10.34367 192,30.6479 320,27.20001 128,-3.44789 256,-31.031 384,-27.39156 128,3.44789 256,37.92678 384,53.63383 128,15.5155 256,12.45071 384,2.87324 128,-9.57747 256,-25.66762 320,-33.52114 l 64,-8.04508 V 541 h -64 c -64,0 -192,0 -320,0 -128,0 -256,0 -384,0 -128,0 -256,0 -384,0 -128,0 -256,0 -384,0 -128,0 -256,0 -320,0 H 0 Z"
     fill="#3b7685"
     id="path12"
     style="stroke-width:1.38401;fill:#593b85;fill-opacity:1" />
  <path
     d="m 0,203.8731 64,2.49014 c 64,2.68169 192,7.66198 320,9.38592 128,1.5324 256,-0.3831 384,3.06479 128,3.63944 256,12.45071 384,15.32395 128,2.87324 256,-0.19155 384,1.72395 128,1.91549 256,8.81127 320,12.45071 l 64,3.44789 V 541 h -64 c -64,0 -192,0 -320,0 -128,0 -256,0 -384,0 -128,0 -256,0 -384,0 -128,0 -256,0 -384,0 -128,0 -256,0 -320,0 H 0 Z"
     fill="#35808f"
     id="path14"
     style="stroke-width:1.38401;fill:#50358f;fill-opacity:1" />
  <path
     d="m 0,336.04217 h 64 c 64,0 192,0 320,-10.91831 128,-10.72677 256,-32.5634 384,-35.43664 128,-2.87324 256,13.21691 384,11.30141 128,-1.91549 256,-21.83662 384,-23.94367 128,-2.29859 256,13.02536 320,20.68733 l 64,7.66198 V 541 h -64 c -64,0 -192,0 -320,0 -128,0 -256,0 -384,0 -128,0 -256,0 -384,0 -128,0 -256,0 -384,0 -128,0 -256,0 -320,0 H 0 Z"
     fill="#2f8b97"
     id="path16"
     style="stroke-width:1.38401;fill:#4f2f97;fill-opacity:1" />
  <path
     d="m 0,332.21118 64,-4.21408 c 64,-4.02254 192,-12.45071 320,-13.98311 128,-1.53239 256,3.44789 384,7.08733 128,3.44789 256,5.36338 384,2.87324 128,-2.68169 256,-9.57747 384,-8.04507 128,1.53239 256,11.87606 320,16.85634 l 64,5.17183 V 541 h -64 c -64,0 -192,0 -320,0 -128,0 -256,0 -384,0 -128,0 -256,0 -384,0 -128,0 -256,0 -384,0 -128,0 -256,0 -320,0 H 0 Z"
     fill="#28969e"
     id="path18"
     style="stroke-width:1.38401;fill:#54289e;fill-opacity:1" />
  <path
     d="m 0,374.35204 64,2.87325 c 64,2.87324 192,8.61972 320,11.87606 128,3.06479 256,3.83098 384,5.74648 128,1.91549 256,4.98028 384,4.02253 128,-0.95774 256,-5.93803 384,-7.85352 128,-1.91549 256,-0.7662 320,0 l 64,0.57465 V 541 h -64 c -64,0 -192,0 -320,0 -128,0 -256,0 -384,0 -128,0 -256,0 -384,0 -128,0 -256,0 -384,0 -128,0 -256,0 -320,0 H 0 Z"
     fill="#22a1a3"
     id="path20"
     style="stroke-width:1.38401;fill:#6822a3;fill-opacity:1" />
  <path
     d="m 0,416.49291 64,4.21408 c 64,4.02254 192,12.45071 320,13.60001 128,1.34084 256,-4.40564 384,-7.66198 128,-3.06479 256,-3.83098 384,-1.14929 128,2.49014 256,8.23662 384,10.53521 128,2.10705 256,0.95775 320,0.19155 l 64,-0.57465 V 541 h -64 c -64,0 -192,0 -320,0 -128,0 -256,0 -384,0 -128,0 -256,0 -384,0 -128,0 -256,0 -384,0 -128,0 -256,0 -320,0 H 0 Z"
     fill="#21aca7"
     id="path22"
     style="stroke-width:1.38401;fill:#7e21ac;fill-opacity:1" />
  <path
     d="m 0,454.80278 64,-0.95775 c 64,-0.95774 192,-2.87324 320,0 128,2.87325 256,10.53522 384,9.96057 128,-0.7662 256,-9.57747 384,-12.25916 128,-2.49014 256,1.34085 384,1.72395 128,0.19155 256,-2.87324 320,-4.59719 l 64,-1.53239 V 541 h -64 c -64,0 -192,0 -320,0 -128,0 -256,0 -384,0 -128,0 -256,0 -384,0 -128,0 -256,0 -384,0 -128,0 -256,0 -320,0 H 0 Z"
     fill="#25b7aa"
     id="path24"
     style="stroke-width:1.38401;fill:#7625b7;fill-opacity:1" />
</svg>
