<?xml version="1.0" encoding="UTF-8" standalone="no"?>
<svg
   id="visual"
   viewBox="0 0 1920 540"
   width="1920"
   height="540"
   version="1.1"
   sodipodi:docname="layered-waves-haikei.svg"
   inkscape:version="1.1 (c68e22c387, 2021-05-23)"
   xmlns:inkscape="http://www.inkscape.org/namespaces/inkscape"
   xmlns:sodipodi="http://sodipodi.sourceforge.net/DTD/sodipodi-0.dtd"
   xmlns="http://www.w3.org/2000/svg"
   xmlns:svg="http://www.w3.org/2000/svg">
  <defs
     id="defs29" />
  <sodipodi:namedview
     id="namedview27"
     pagecolor="#505050"
     bordercolor="#ffffff"
     borderopacity="1"
     inkscape:pageshadow="0"
     inkscape:pageopacity="0"
     inkscape:pagecheckerboard="1"
     showgrid="false"
     inkscape:zoom="0.55104167"
     inkscape:cx="959.09263"
     inkscape:cy="269.4896"
     inkscape:window-width="2498"
     inkscape:window-height="1417"
     inkscape:window-x="54"
     inkscape:window-y="-8"
     inkscape:window-maximized="1"
     inkscape:current-layer="visual" />
  <path
     d="M 0,39.352881 64,27.299169 C 128,15.068197 256,-9.0392266 384,7.8005177 512,24.640262 640,82.427174 768,101.74856 c 128,19.14414 256,-0.35452 384,-11.876446 128,-11.521931 256,-15.06714 384,-23.043861 128,-7.976721 256,-20.384954 320,-26.58907 l 64,-6.204116 V 541 h -64 c -64,0 -192,0 -320,0 -128,0 -256,0 -384,0 -128,0 -256,0 -384,0 -128,0 -256,0 -384,0 -128,0 -256,0 -320,0 H 0 Z"
     fill="#3f454b"
     id="path2"
     style="stroke-width:1.33139" />
  <path
     d="M 0,126.21051 64,106.71186 C 128,87.213207 256,48.215904 384,43.784392 512,39.352881 640,69.48716 768,86.326904 c 128,16.839746 256,20.384956 384,17.194266 128,-3.36795 256,-13.294536 384,-17.726047 128,-4.431512 256,-3.367949 320,-2.658907 l 64,0.531781 V 541 h -64 c -64,0 -192,0 -320,0 -128,0 -256,0 -384,0 -128,0 -256,0 -384,0 -128,0 -256,0 -384,0 -128,0 -256,0 -320,0 H 0 Z"
     fill="#414e58"
     id="path4"
     style="stroke-width:1.33139" />
  <path
     d="m 0,193.56949 64,3.01342 c 64,2.83617 192,8.86303 320,9.92659 128,1.24082 256,-2.30439 384,-25.34825 128,-23.04386 256,-65.58637 384,-69.66336 128,-4.25425 256,30.13428 384,32.43867 128,2.30438 256,-27.12086 320,-42.01073 l 64,-14.712623 V 541 h -64 c -64,0 -192,0 -320,0 -128,0 -256,0 -384,0 -128,0 -256,0 -384,0 -128,0 -256,0 -384,0 -128,0 -256,0 -320,0 H 0 Z"
     fill="#425764"
     id="path6"
     style="stroke-width:1.33139" />
  <path
     d="m 0,172.29823 64,-12.76275 c 64,-12.5855 192,-38.111 320,-45.20142 128,-7.09042 256,4.25425 384,25.70277 128,21.62577 256,53.53266 384,63.6365 128,9.92659 256,-1.7726 384,-11.34467 128,-9.3948 256,-16.48522 320,-20.03043 l 64,-3.54521 V 541 h -64 c -64,0 -192,0 -320,0 -128,0 -256,0 -384,0 -128,0 -256,0 -384,0 -128,0 -256,0 -384,0 -128,0 -256,0 -320,0 H 0 Z"
     fill="#416170"
     id="path8"
     style="stroke-width:1.33139" />
  <path
     d="m 0,204.20511 64,0.35453 c 64,0.17726 192,0.8863 320,-5.67234 128,-6.55864 256,-20.03043 384,-19.49865 128,0.53178 256,15.42166 384,18.25783 128,3.01342 256,-5.8496 384,-11.52193 128,-5.49508 256,-7.97672 320,-9.04029 l 64,-1.24082 V 541 h -64 c -64,0 -192,0 -320,0 -128,0 -256,0 -384,0 -128,0 -256,0 -384,0 -128,0 -256,0 -384,0 -128,0 -256,0 -320,0 H 0 Z"
     fill="#3f6b7b"
     id="path10"
     style="stroke-width:1.33139" />
  <path
     d="m 0,230.79418 64,-4.96329 c 64,-5.14055 192,-15.06714 320,-14.88988 128,0.35452 256,10.99015 384,24.63921 128,13.47179 256,30.13428 384,38.28826 128,8.33124 256,8.33124 384,-4.43151 128,-12.5855 256,-38.111 320,-50.6965 l 64,-12.76275 V 541 h -64 c -64,0 -192,0 -320,0 -128,0 -256,0 -384,0 -128,0 -256,0 -384,0 -128,0 -256,0 -384,0 -128,0 -256,0 -320,0 H 0 Z"
     fill="#3b7685"
     id="path12"
     style="stroke-width:1.33139" />
  <path
     d="m 0,299.92577 64,3.01342 c 64,2.83617 192,8.86303 320,1.94987 128,-6.7359 256,-26.23455 384,-30.13428 128,-3.72247 256,7.97672 384,17.72605 128,9.74932 256,17.54878 384,19.85317 128,2.30438 256,-0.53178 320,-2.12713 l 64,-1.41808 V 541 h -64 c -64,0 -192,0 -320,0 -128,0 -256,0 -384,0 -128,0 -256,0 -384,0 -128,0 -256,0 -384,0 -128,0 -256,0 -320,0 H 0 Z"
     fill="#35808f"
     id="path14"
     style="stroke-width:1.33139" />
  <path
     d="m 0,315.87921 64,-4.9633 c 64,-5.14055 192,-15.06713 320,-14.18083 128,0.8863 256,12.58549 384,12.05371 128,-0.53178 256,-13.64906 384,-12.94001 128,0.53178 256,14.71261 384,21.44851 128,6.91316 256,6.20412 320,6.02686 l 64,-0.35452 V 541 h -64 c -64,0 -192,0 -320,0 -128,0 -256,0 -384,0 -128,0 -256,0 -384,0 -128,0 -256,0 -384,0 -128,0 -256,0 -320,0 H 0 Z"
     fill="#2f8b97"
     id="path16"
     style="stroke-width:1.33139" />
  <path
     d="m 0,379.69298 64,-0.88631 c 64,-0.8863 192,-2.6589 320,-11.52193 128,-8.86302 256,-24.81646 384,-25.34824 128,-0.70905 256,14.18083 384,12.94001 128,-1.24082 256,-18.25783 384,-26.58907 128,-8.33124 256,-7.6222 320,-7.44494 l 64,0.35452 V 541 h -64 c -64,0 -192,0 -320,0 -128,0 -256,0 -384,0 -128,0 -256,0 -384,0 -128,0 -256,0 -384,0 -128,0 -256,0 -320,0 H 0 Z"
     fill="#28969e"
     id="path18"
     style="stroke-width:1.33139" />
  <path
     d="m 0,372.60256 64,6.73589 c 64,6.91316 192,20.38496 320,19.85318 128,-0.53178 256,-15.42166 384,-17.19427 128,-1.7726 256,9.57207 384,13.29454 128,3.89973 256,0.35452 384,1.59534 128,1.06356 256,7.09042 320,9.92659 l 64,3.01343 V 541 h -64 c -64,0 -192,0 -320,0 -128,0 -256,0 -384,0 -128,0 -256,0 -384,0 -128,0 -256,0 -384,0 -128,0 -256,0 -320,0 H 0 Z"
     fill="#22a1a3"
     id="path20"
     style="stroke-width:1.33139" />
  <path
     d="m 0,427.5533 64,-2.12712 c 64,-1.94987 192,-6.20412 320,-7.6222 128,-1.41809 256,-0.35452 384,0.53178 128,0.8863 256,1.59534 384,1.59534 128,0 256,-0.70904 384,1.94987 128,2.6589 256,8.68576 320,11.52193 l 64,3.01342 V 541 h -64 c -64,0 -192,0 -320,0 -128,0 -256,0 -384,0 -128,0 -256,0 -384,0 -128,0 -256,0 -384,0 -128,0 -256,0 -320,0 H 0 Z"
     fill="#21aca7"
     id="path22"
     style="stroke-width:1.33139" />
  <path
     d="m 0,457.68758 64,2.30439 c 64,2.48164 192,7.09042 320,7.79946 128,0.53178 256,-3.01343 384,-6.55864 128,-3.54521 256,-7.09042 384,-4.43151 128,2.65891 256,11.52193 384,14.53536 128,2.83616 256,0 320,-1.59535 l 64,-1.41808 V 541 h -64 c -64,0 -192,0 -320,0 -128,0 -256,0 -384,0 -128,0 -256,0 -384,0 -128,0 -256,0 -384,0 -128,0 -256,0 -320,0 H 0 Z"
     fill="#25b7aa"
     id="path24"
     style="stroke-width:1.33139" />
</svg>
